<svg width="298" height="215" viewBox="0 0 298 215" fill="none" xmlns="http://www.w3.org/2000/svg">
<path d="M64.6238 214.095C54.2006 214.095 47.2022 207.544 45.5643 195.78C45.1176 192.504 44.6709 190.866 42.884 190.866C36.1834 190.866 25.1646 213.351 10.2743 213.351C2.97806 213.351 0 209.033 0 202.928C0 199.056 1.34013 194.44 3.27586 188.931L20.6975 139.197C21.2931 137.261 21.1442 135.623 18.464 135.623H9.08307C8.04075 135.623 7.59405 135.028 7.59405 134.581C7.59405 133.837 8.48746 133.092 9.67869 133.092C25.6113 133.092 34.3966 126.243 41.2461 112.841C41.6928 111.948 42.5862 111.501 43.1818 111.501C44.0753 111.501 44.522 112.097 44.3731 112.841L38.5658 129.072C37.6724 131.603 37.8213 133.688 40.9483 133.688C45.8621 133.688 50.627 132.496 54.6474 132.496C55.8386 132.496 56.4342 133.39 56.4342 134.134C56.4342 135.177 55.5408 136.219 53.9028 136.219H39.7571C37.8213 136.219 35.8856 137.112 34.9922 139.793L18.0172 189.08C16.9749 191.909 15.4859 196.525 15.4859 198.907C15.4859 201.736 16.826 203.374 19.953 203.374C25.7602 203.374 40.6505 189.377 49.1379 170.467C56.1364 149.769 72.069 130.859 88.5972 130.859C97.3825 130.859 103.636 135.475 103.636 143.366C103.636 154.534 90.384 167.34 67.8997 173.147C64.7728 173.891 61.6458 177.167 60.9013 180.294C60.3057 184.017 60.0079 187.293 60.0079 190.271C60.0079 199.949 65.0706 203.97 71.1756 203.97C80.5564 203.97 90.0862 193.547 97.8292 176.125C99.0204 173.594 101.105 174.636 100.212 176.721C94.1066 190.717 82.1944 214.095 64.6238 214.095ZM63.8793 167.191C63.1348 170.467 64.9217 172.254 68.0486 171.36C84.8746 165.851 92.3198 154.385 92.3198 143.069C92.3198 138.006 90.9797 134.432 87.1082 134.432C77.7273 134.432 68.7931 150.812 63.8793 167.191Z" fill="white"/>
<path d="M115.862 213.946C106.778 213.946 102.162 205.608 102.162 194.142C102.162 167.638 125.987 131.007 146.833 131.007C154.427 131.007 157.852 136.07 159.341 143.515C159.788 146.791 160.979 146.94 162.17 143.813L163.213 140.537C164.255 138.006 165.297 136.815 167.978 136.815C173.189 136.815 176.614 130.114 179.89 130.114C181.23 130.114 182.272 131.007 181.379 132.645C175.572 145.153 170.062 157.81 165.148 171.807L159.043 188.931C156.065 197.418 156.661 201.587 159.937 201.587C163.957 201.587 170.956 189.08 180.932 168.829L181.826 167.042C191.504 146.94 199.843 131.007 212.946 131.007C219.349 131.007 221.136 135.028 221.136 139.495C221.136 143.366 218.605 148.28 216.073 154.832L211.755 166.446C211.01 168.68 211.457 169.275 212.351 169.275C213.095 169.275 213.691 168.68 214.584 167.042C227.241 144.111 236.175 131.007 246.896 131.007C252.852 131.007 256.128 135.772 256.128 141.133C256.128 147.685 252.405 154.832 248.683 163.617C247.641 165.702 247.938 166.297 248.832 166.297C249.576 166.297 249.725 166 250.916 163.915C262.829 143.069 271.763 131.007 282.186 131.007C289.184 131.007 292.163 135.475 292.163 141.877C292.163 150.96 284.569 167.489 275.337 190.569C272.061 198.609 271.912 202.928 275.188 203.225C279.208 203.523 285.164 195.929 294.396 178.656C295.29 176.87 295.885 176.274 296.779 176.423C297.672 176.423 297.97 177.018 297.076 179.103C289.631 193.547 278.463 215.138 265.807 214.244C257.915 213.797 256.128 209.479 256.426 204.714C256.724 200.992 257.915 197.12 260.893 189.675C268.785 169.871 276.677 152.152 276.677 146.344C276.677 143.069 275.634 141.58 273.55 141.58C264.913 141.58 248.832 167.489 241.833 188.335C237.515 200.694 239.451 204.565 238.855 207.544C238.26 211.564 233.346 214.095 228.73 214.095C221.583 214.095 218.009 210.373 222.476 198.609C229.028 182.23 241.982 154.832 241.982 146.344C241.982 143.069 240.94 141.58 238.855 141.58C233.197 141.58 217.264 159.15 206.99 188.335C202.672 200.694 204.608 204.565 204.012 207.544C203.416 211.564 198.503 214.095 193.738 214.095C186.739 214.095 183.166 210.373 187.484 198.609C195.227 178.507 200.587 160.788 202.672 154.832C205.501 146.493 205.948 142.175 202.672 142.175C198.652 142.175 192.547 150.663 183.761 168.68L183.017 170.318C175.572 185.953 163.957 213.351 151.3 213.351C143.409 213.351 141.324 209.33 141.324 204.565C141.324 200.843 143.111 196.971 145.94 189.526L147.727 184.166C148.322 182.379 147.876 181.486 146.982 181.486C145.94 181.486 145.047 182.23 144.302 183.719C138.942 193.993 128.072 213.946 115.862 213.946ZM117.202 191.611C117.202 199.652 119.137 202.63 122.711 202.63C132.092 202.63 145.047 182.826 151.449 165.255C153.832 157.959 155.023 152.003 155.023 147.089C155.023 139.644 153.236 135.326 148.322 135.326C133.73 135.326 117.202 170.467 117.202 191.611Z" fill="white"/>
<path d="M47.553 120.76C47.553 119.768 48.2975 119.271 49.7865 119.271C55.2463 119.271 59.5645 118.179 62.7411 115.995C66.017 113.712 68.7965 109.295 71.0797 102.743L105.625 2.23354C105.824 1.53866 106.221 0.992688 106.816 0.595613C107.412 0.198538 108.057 0 108.752 0H112.624C113.318 0 113.914 0.198538 114.41 0.595613C115.006 0.992688 115.403 1.53866 115.602 2.23354L151.189 102.743C153.473 109.295 155.954 113.712 158.635 115.995C161.315 118.179 164.789 119.271 169.058 119.271C169.753 119.271 170.199 119.37 170.398 119.569C170.696 119.768 170.845 120.165 170.845 120.76C170.845 121.654 170.249 122.1 169.058 122.1C166.775 122.1 163.151 122.001 158.188 121.803L150.892 121.505H140.319L127.961 121.803C119.821 122.001 113.716 122.1 109.646 122.1C108.554 122.1 107.759 122.001 107.263 121.803C106.866 121.604 106.667 121.257 106.667 120.76C106.667 119.768 107.66 119.271 109.646 119.271C115.006 119.271 118.828 118.725 121.111 117.633C123.493 116.442 124.685 114.159 124.685 110.784C124.685 108.798 124.139 106.019 123.047 102.445L119.026 89.4906C118.332 87.406 117.14 85.7681 115.453 84.5768C113.864 83.3856 111.978 82.79 109.794 82.79H87.459C85.2751 82.79 83.3393 83.3856 81.6518 84.5768C80.0635 85.7681 78.9219 87.406 78.227 89.4906L73.7599 102.594C72.4694 106.664 71.8242 109.642 71.8242 111.528C71.8242 114.506 72.9161 116.541 75.1 117.633C77.3832 118.725 81.0065 119.271 85.9699 119.271C87.0619 119.271 87.8064 119.37 88.2035 119.569C88.6006 119.768 88.7991 120.165 88.7991 120.76C88.7991 121.257 88.6006 121.604 88.2035 121.803C87.8064 122.001 87.0619 122.1 85.9699 122.1C83.9846 122.1 80.5102 122.001 75.5467 121.803C71.576 121.604 68.3994 121.505 66.017 121.505C64.4287 121.505 62.1455 121.604 59.1674 121.803C54.7996 122.001 51.6726 122.1 49.7865 122.1C48.9924 122.1 48.4464 122.001 48.1486 121.803C47.7515 121.604 47.553 121.257 47.553 120.76ZM83.8853 73.7069C83.5875 74.6003 83.4386 75.4441 83.4386 76.2383C83.4386 79.0178 85.1758 80.4075 88.6502 80.4075H108.752C112.326 80.4075 114.113 78.9682 114.113 76.0894C114.113 75.2952 113.964 74.4514 113.666 73.558L101.456 34.8433C100.86 32.7586 100.116 31.7163 99.2223 31.7163C98.5274 31.7163 97.7829 32.7586 96.9888 34.8433L83.8853 73.7069Z" fill="white"/>
<path d="M294.671 85.4702C294.969 84.0805 295.416 83.3856 296.011 83.3856C296.408 83.3856 296.657 83.5345 296.756 83.8323C296.954 84.1301 297.004 84.6761 296.905 85.4702C295.714 98.7722 293.083 108.501 289.013 114.655C284.943 120.81 278.838 123.887 270.698 123.887C263.551 123.887 258.14 121.604 254.467 117.038C250.795 112.372 248.958 104.728 248.958 94.1066V50.3292C248.958 48.6416 248.511 47.3511 247.618 46.4577C246.725 45.5643 245.434 45.1176 243.746 45.1176H237.046C235.358 45.1176 234.515 44.6709 234.515 43.7774C234.515 42.7848 235.358 42.2884 237.046 42.2884C241.612 42.2884 246.129 41.4943 250.596 39.906C255.063 38.2184 258.885 35.7367 262.062 32.4608C265.337 29.0857 267.372 25.0157 268.167 20.2508C268.365 18.9603 268.613 18.0669 268.911 17.5705C269.209 17.0742 269.705 16.826 270.4 16.826C271.095 16.826 271.542 17.0742 271.74 17.5705C271.939 17.9676 272.038 18.8114 272.038 20.1019V37.0768C272.038 38.9629 272.634 40.4023 273.825 41.395C275.115 42.2884 276.654 42.7351 278.441 42.7351C280.625 42.7351 283.305 42.338 286.482 41.5439C288.666 41.0476 290.204 40.7994 291.098 40.7994C292.884 40.7994 293.778 41.4943 293.778 42.884C293.778 44.3731 292.785 45.1176 290.8 45.1176H277.696C276.108 45.1176 274.867 45.6139 273.974 46.6066C273.08 47.5 272.634 48.7409 272.634 50.3292V92.1709C272.634 98.3255 273.428 103.041 275.016 106.317C276.704 109.493 278.937 111.082 281.717 111.082C284.496 111.082 287.028 108.848 289.311 104.381C291.693 99.9138 293.48 93.6103 294.671 85.4702ZM167.806 120.76C167.806 119.768 168.6 119.271 170.188 119.271C173.564 119.271 176.244 118.824 178.229 117.931C180.314 116.938 181.853 115.201 182.845 112.719C183.937 110.138 184.483 106.416 184.483 101.552V58.0721C184.483 54.2999 184.086 51.7686 183.292 50.4781C182.498 49.0883 181.307 48.3934 179.718 48.3934C178.229 48.3934 176.542 48.5423 174.656 48.8401C172.869 49.1379 171.529 49.2869 170.635 49.2869C169.841 49.2869 169.345 49.1876 169.146 48.989C168.848 48.7905 168.699 48.4431 168.699 47.9467C168.699 47.4504 168.898 47.1029 169.295 46.9044C169.593 46.6066 170.238 46.4081 171.231 46.3088C174.904 45.8124 180.761 44.4723 188.801 42.2884C192.176 41.395 195.502 40.6009 198.778 39.906C202.054 39.1118 204.585 38.7147 206.372 38.7147H206.521C207.513 38.7147 208.258 39.0126 208.754 39.6082C209.251 40.2038 209.499 40.8987 209.499 41.6928C209.499 42.7848 209.3 44.522 208.903 46.9044C208.804 47.5 208.705 48.2445 208.605 49.1379C208.506 49.9321 208.407 50.9248 208.308 52.116V53.1583C208.308 54.7466 208.457 55.5408 208.754 55.5408C209.151 55.5408 209.648 54.4985 210.243 52.4138C214.512 39.7074 219.178 29.9791 224.24 23.2288C229.303 16.3793 235.209 12.9546 241.96 12.9546C246.526 12.9546 250.298 13.9472 253.276 15.9326C256.354 17.8187 257.892 20.3501 257.892 23.5267C257.892 26.7032 257.098 29.2842 255.51 31.2696C253.922 33.1557 251.787 34.0988 249.107 34.0988C247.717 34.0988 246.576 33.8506 245.682 33.3542C244.789 32.8579 243.895 32.163 243.002 31.2696C241.811 30.1776 240.768 29.3835 239.875 28.8872C238.982 28.3908 237.691 28.1426 236.004 28.1426C230.742 28.1426 225.977 30.9222 221.709 36.4812C217.44 42.0402 214.065 48.7905 211.583 56.732C209.102 64.5742 207.861 71.6223 207.861 77.8762V101.552C207.861 106.317 208.655 109.99 210.243 112.571C211.832 115.152 214.115 116.938 217.093 117.931C220.17 118.824 224.191 119.271 229.154 119.271C230.544 119.271 231.487 119.37 231.983 119.569C232.48 119.768 232.728 120.165 232.728 120.76C232.728 121.257 232.48 121.604 231.983 121.803C231.487 122.001 230.544 122.1 229.154 122.1C225.68 122.1 220.369 122.001 213.221 121.803C207.067 121.604 202.848 121.505 200.565 121.505H189.248C187.759 121.505 185.029 121.604 181.058 121.803C176.293 122.001 172.67 122.1 170.188 122.1C169.295 122.1 168.699 122.001 168.402 121.803C168.005 121.604 167.806 121.257 167.806 120.76Z" fill="white"/>
</svg>
